<svg id="레이어_1" data-name="레이어 1" xmlns="http://www.w3.org/2000/svg" width="311.74" height="89.44" viewBox="0 0 311.74 89.44">
  <title>slipp_basic_logotype</title>
  <g>
    <g>
      <g>
        <path d="M170.55,219.18q8.25,0,12.24,3.59a12.06,12.06,0,0,1,4,9.39q0,4.92-2.72,7.51a8.52,8.52,0,0,1-6.81,2.59,4.18,4.18,0,0,1-2-.31,1.46,1.46,0,0,1-.44-1.27c0-.59-.05-1.35-.13-2.29a9.92,9.92,0,0,0-.66-2.72,7.18,7.18,0,0,0-2.67-3.23,16.38,16.38,0,0,0-5.16-.93,7.86,7.86,0,0,0-5,1.72c-1.46,1.14-2.19,3.61-2.19,5.43a4.79,4.79,0,0,0,1.8,3.86,20.64,20.64,0,0,0,4.51,2.76c1.82.85,3.79,1.71,5.93,2.59a33.23,33.23,0,0,1,5.92,3.47,23.33,23.33,0,0,1,6.52,7.35,12.65,12.65,0,0,1,1.8,7.12,15.4,15.4,0,0,1-1.27,6.24,16.42,16.42,0,0,1-3.78,5.88,17.11,17.11,0,0,1-6.31,3.9,25.71,25.71,0,0,1-8.91,1.41,32.51,32.51,0,0,1-8.12-1,30.37,30.37,0,0,1-6.49-2.41,16,16,0,0,1-4.35-3.16,4.89,4.89,0,0,1-1.58-3.12,36.88,36.88,0,0,1,.66-8.33c.44-1.7,1.24-2.55,2.42-2.55a4.25,4.25,0,0,1,2.58,1.06c.91.7,2,1.49,3.12,2.36a21.45,21.45,0,0,0,4.08,2.37,31,31,0,0,0,8.4,2.06,13.76,13.76,0,0,0,2.41-.22,6.85,6.85,0,0,0,2.11-.75,4.35,4.35,0,0,0,1.49-1.4,3.8,3.8,0,0,0,.57-2.11c0-1.46-1.56-3.63-2.67-4.51a18.75,18.75,0,0,0-4.21-2.41q-2.55-1.09-5.49-2.28a38.58,38.58,0,0,1-7.48-4.25,16.12,16.12,0,0,1-4.21-5.31,14,14,0,0,1-1.67-7.34,20,20,0,0,1,2.15-9.65,19.52,19.52,0,0,1,5.53-6.45,21.82,21.82,0,0,1,7.63-3.6A33.89,33.89,0,0,1,170.55,219.18Z" transform="translate(-93.33 -205.72)"/>
        <path d="M194.86,259.19q.44-5.44.88-11.49t.87-11.41c.3-3.57.53-6.7.71-9.39s.26-4.54.26-5.53.47-1.32,1.4-1.32h.83c3.27,0,6.54.63,7.8,1.89a7.56,7.56,0,0,1,1.89,5.57,6.18,6.18,0,0,1-.05.79,6.41,6.41,0,0,0,0,.79l-2.9,41h18.8a1.66,1.66,0,0,1,1,.31,1,1,0,0,1,.44.92l-.35,5.18a7.61,7.61,0,0,1-1.45,4.26q-1.26,1.62-5.22,1.62l-16.63-.06c-3.33,0-5.69-.66-7.06-2a7.68,7.68,0,0,1-2.07-5.83c0-.76,0-2,.14-3.64s.21-3.64.39-5.93Z" transform="translate(-93.33 -205.72)"/>
        <path d="M244.37,282.36a14.27,14.27,0,0,1-4.43-.57,6.47,6.47,0,0,1-2.72-1.63,5.71,5.71,0,0,1-1.41-2.58,14.58,14.58,0,0,1-.39-3.56c0-.88,0-2.12.13-3.73s.25-3.83.48-6.67.51-5.43.83-9.79.72-9.76,1.19-16.19a4.34,4.34,0,0,1,.44-2.28c.17-.18.64-.27,1.4-.27h1.42a15.47,15.47,0,0,1,4.44.53,6.26,6.26,0,0,1,2.72,1.58,5.69,5.69,0,0,1,1.4,2.55,13.1,13.1,0,0,1,.4,3.33c0,.88-.06,2.19-.18,3.95s-.28,4.14-.48,7.15-.49,5.76-.84,10.23-.79,9.88-1.31,16.19A2.37,2.37,0,0,1,247,282a2.24,2.24,0,0,1-1.49.35Zm-6.23-57.62a6.67,6.67,0,0,1,2.54-5.53,8,8,0,0,1,5.85-2c2.51,0,3.34.52,4.48,1.54a5.21,5.21,0,0,1,1.71,4.08,6.94,6.94,0,0,1-2.41,5.4c-1.61,1.43-3,2.14-6.06,2.14C239.51,230.35,238.14,228.48,238.14,224.74Z" transform="translate(-93.33 -205.72)"/>
        <path d="M269,282.36c-3.33,0-5.69-.66-7.06-2a7.68,7.68,0,0,1-2.07-5.83c0-.76.05-2,.14-3.64s.22-3.64.39-5.93.37-4.76.57-7.46.43-5.44.66-8.24c.29-3.46.54-6.42.75-8.91s.36-4.62.48-6.41.22-3.27.31-4.47.14-2.25.17-3.16.06-1.74.09-2.5,0-1.58,0-2.46a1.16,1.16,0,0,1,.44-1,1.57,1.57,0,0,1,.88-.31c1.52,0,3.19,0,5-.13s3.63-.19,5.44-.31,2.57-.22,4.27-.3,1.19-.13,2.47-.13a24.18,24.18,0,0,1,8.66,1.36,15.22,15.22,0,0,1,10.22,10.22,27.54,27.54,0,0,1,1.18,8.42,36,36,0,0,1-1.36,10,24.21,24.21,0,0,1-4.25,8.47,22,22,0,0,1-17.34,8.07,22.44,22.44,0,0,1-6.41-.79L271.43,281a1.88,1.88,0,0,1-.35,1,1.34,1.34,0,0,1-1.05.31Zm12.22-50c-.76,0-1.61,0-2.55.13s-2.93.19-4,.31c-.12,2.45-.26,5.44-.44,8.95s-.41,7.19-.7,11.06a32.46,32.46,0,0,0,3.59.48,21.91,21.91,0,0,0,2.32.13,7.9,7.9,0,0,0,5-1.45,10.08,10.08,0,0,0,2.94-3.55,14.8,14.8,0,0,0,1.4-4.39,25.85,25.85,0,0,0,.36-3.95,8.57,8.57,0,0,0-1.72-5.75Q285.68,232.35,281.21,232.34Z" transform="translate(-93.33 -205.72)"/>
      </g>
      <path d="M318.59,282.36c-3.33,0-5.69-.66-7.06-2a7.68,7.68,0,0,1-2.07-5.83c0-.76.05-2,.14-3.64s.22-3.64.39-5.93.37-4.76.57-7.46.42-5.44.66-8.24c.29-3.46.54-6.42.75-8.91s.36-4.62.48-6.41.22-3.27.3-4.47.15-2.25.18-3.16.06-1.74.09-2.5,0-1.58,0-2.46a1.16,1.16,0,0,1,.44-1,1.57,1.57,0,0,1,.88-.31c1.52,0,3.19,0,5-.13s3.63-.19,5.44-.31,2.57-.22,4.27-.3,1.18-.13,2.47-.13a24.09,24.09,0,0,1,8.65,1.36,15.21,15.21,0,0,1,10.23,10.22,27.54,27.54,0,0,1,1.18,8.42,36,36,0,0,1-1.36,10,24.21,24.21,0,0,1-4.25,8.47,22,22,0,0,1-17.34,8.07,22.44,22.44,0,0,1-6.41-.79L321,281a1.88,1.88,0,0,1-.35,1,1.36,1.36,0,0,1-1.05.31Zm12.22-50c-.76,0-1.61,0-2.55.13s-2.93.19-4,.31c-.12,2.45-.26,5.44-.44,8.95s-.41,7.19-.7,11.06a32.46,32.46,0,0,0,3.59.48,21.91,21.91,0,0,0,2.32.13,7.9,7.9,0,0,0,5-1.45A10.08,10.08,0,0,0,337,248.4a14.8,14.8,0,0,0,1.4-4.39,25.7,25.7,0,0,0,.35-3.95,8.56,8.56,0,0,0-1.71-5.75Q335.28,232.35,330.81,232.34Z" transform="translate(-93.33 -205.72)"/>
    </g>
    <path d="M400.33,243h-.09a5.72,5.72,0,0,1-5-2c-2.21-2.32-2.4-4.82-2.4-7.18,0-1.27.07-2.48.14-3.76s.14-2.62.14-4c0-2.55,0-10.32-5.85-15.65-2.88-2.64-6.47-4.08-11.27-4.55H374.8l0-.09c-1.67,0-2.88,0-3.64,0a7.71,7.71,0,0,0-5.78,2.22q-1.92,2.12-1.78,7.12l0,1a1.36,1.36,0,0,0,.33,1.05,1.89,1.89,0,0,0,1,.32l10.78.53a5.86,5.86,0,0,1,.9.21,4.11,4.11,0,0,0,.85.18l1.5.66c2.4,1.55,3.56,4.42,3.56,8.78a10.36,10.36,0,0,1-.14,2,14.45,14.45,0,0,0-.18,2.58,21.14,21.14,0,0,0,1.88,9.4q.33.67.63,1.32a14.54,14.54,0,0,0,3.42,5.2c-3.84,2.71-5.65,8.22-5.65,17a19.27,19.27,0,0,0,.21,3.29,13.06,13.06,0,0,1,.16,2.36c0,3.41-.43,7.62-3.79,9.93a6.34,6.34,0,0,1-4.1,1.49v0c-1.76,0-3.08,0-4,.07a12.59,12.59,0,0,0-3.3.6,5.67,5.67,0,0,0-2.45,1.56,6.17,6.17,0,0,0-1.41,2.81,15.53,15.53,0,0,0-.25,4.46l.09,1.42c0,.76.16,1.22.35,1.38a4.37,4.37,0,0,0,2.3.3l7.59.08v-.07c4.35-.07,8.9-.48,12.93-3.57,5.95-4.57,6.64-11.87,6.64-17,0-2.28-.11-4.23-.22-6.12-.1-1.64-.19-3.18-.19-4.73,0-4.68.78-6.27,2.42-7.88a5.56,5.56,0,0,1,4.75-1.73,4.77,4.77,0,0,0,4.81-4.75v-1.68A4.68,4.68,0,0,0,400.33,243Z" transform="translate(-93.33 -205.72)" style="fill: #060001"/>
    <path d="M134.56,287.5a6.22,6.22,0,0,0-1.41-2.81,5.84,5.84,0,0,0-2.46-1.56,13.29,13.29,0,0,0-3.3-.6c-.87,0-2.19-.07-4-.07v0a6.36,6.36,0,0,1-4.1-1.48c-3.4-2.34-3.79-6.79-3.79-9.94a14.25,14.25,0,0,1,.15-2.35,19.52,19.52,0,0,0,.21-3.3c0-8.81-1.8-14.33-5.64-17a14.45,14.45,0,0,0,3.42-5.2l.62-1.32a21,21,0,0,0,1.88-9.39,13.35,13.35,0,0,0-.18-2.58,11.28,11.28,0,0,1-.14-2.06c0-4.35,1.17-7.23,3.57-8.77l1.5-.66a3.35,3.35,0,0,0,.84-.19c.31-.09.61-.15.91-.21l10.78-.52a1.89,1.89,0,0,0,1-.33,1.35,1.35,0,0,0,.34-1l0-1q.14-5-1.78-7.11a7.73,7.73,0,0,0-5.78-2.22c-.76,0-2,0-3.64,0l0,.08h-1.19c-4.81.48-8.39,1.92-11.28,4.55-5.84,5.33-5.84,13.1-5.84,15.66,0,1.39.07,2.73.14,4s.13,2.5.13,3.76c0,2.37-.18,4.87-2.4,7.19-1.89,2-3.3,2-5.18,2a4.66,4.66,0,0,0-4.66,4.66v1.69a4.77,4.77,0,0,0,4.81,4.75h.06a5.51,5.51,0,0,1,4.7,1.73c1.63,1.6,2.41,3.19,2.41,7.87,0,1.56-.09,3.1-.18,4.73-.11,1.89-.22,3.85-.22,6.13,0,5.09.68,12.38,6.64,16.95,4,3.1,8.58,3.5,12.92,3.58v.07l7.59-.09a4.42,4.42,0,0,0,2.3-.3c.19-.16.3-.62.35-1.38l.09-1.42A15.53,15.53,0,0,0,134.56,287.5Z" transform="translate(-93.33 -205.72)" style="fill: #060001"/>
  </g>
</svg>
